# Blender v2.80 (sub 75) OBJ File: ''
# www.blender.org
o Cube
v 1.000000 1.000000 -1.000000
v 1.000000 -1.000000 -1.000000
v 1.000000 1.000000 1.000000
v 1.000000 -1.000000 1.000000
v -1.000000 1.000000 -1.000000
v -1.000000 -1.000000 -1.000000
v -1.000000 1.000000 1.000000
v -1.000000 -1.000000 1.000000
vt 0.375000 0.000000
vt 0.625000 0.000000
vt 0.625000 0.250000
vt 0.375000 0.250000
vt 0.375000 0.250000
vt 0.625000 0.250000
vt 0.625000 0.500000
vt 0.375000 0.500000
vt 0.625000 0.750000
vt 0.375000 0.750000
vt 0.625000 0.750000
vt 0.625000 1.000000
vt 0.375000 1.000000
vt 0.125000 0.500000
vt 0.375000 0.500000
vt 0.375000 0.750000
vt 0.125000 0.750000
vt 0.625000 0.500000
vt 0.875000 0.500000
vt 0.875000 0.750000
vn 0.0000 1.0000 0.0000
vn 0.0000 0.0000 1.0000
vn -1.0000 0.0000 0.0000
vn 0.0000 -1.0000 0.0000
vn 1.0000 0.0000 0.0000
vn 0.0000 0.0000 -1.0000
s off
f 1/1/1 5/2/1 7/3/1 3/4/1
f 4/5/2 3/6/2 7/7/2 8/8/2
f 8/8/3 7/7/3 5/9/3 6/10/3
f 6/10/4 2/11/4 4/12/4 8/13/4
f 2/14/5 1/15/5 3/16/5 4/17/5
f 6/18/6 5/19/6 1/20/6 2/11/6
o Bunny-LowPoly
v 29.226992 44.539494 -18.707151
v 46.159988 49.961536 -16.625916
v 36.518944 43.721592 -26.357403
v 46.750908 10.309030 33.683292
v 55.259842 14.605011 29.120697
v 55.135765 21.711510 33.818977
v 31.117165 112.434212 -26.499443
v 23.362013 106.938759 -20.396402
v 29.542870 111.693085 -11.765723
v 13.977301 65.433876 17.521719
v 12.460421 52.311466 27.631361
v 27.161108 64.589813 20.210508
v 21.050880 31.485106 -14.744042
v 5.591862 48.569427 -20.200201
v 56.676582 42.754032 -18.933500
v 63.935928 34.695133 -15.736155
v -19.512016 57.556541 24.397982
v -22.721935 64.221367 26.361109
v -22.557022 60.116085 7.863877
v 63.092522 22.043007 -13.910298
v 74.103683 25.026283 2.433340
v 65.392700 12.979102 -1.685113
v 8.380380 107.663826 -43.984310
v 18.309347 97.114212 -45.197327
v 6.276077 90.716042 -42.754452
v 56.439388 14.206014 -12.568314
v 49.960499 29.366737 -21.494259
v 7.373121 19.886049 20.273106
v 10.061195 10.217390 10.791482
v 7.337845 15.425775 24.842545
v 38.374302 16.788998 -19.974197
v 28.565018 32.567257 -26.427288
v -1.814861 11.859421 7.484867
v -0.456871 5.253883 12.881787
v 10.393107 14.842429 -6.124787
v 31.862989 15.076270 -17.091349
v 13.467396 8.858381 -17.502567
v 4.804572 78.931030 -10.327667
v 9.657615 79.935822 -7.293525
v 11.322732 68.510033 -10.695372
v 82.996773 31.685160 9.758068
v 82.011826 25.699102 22.448847
v 84.232941 23.274181 10.809189
v 16.219772 112.513641 -41.004177
v 3.330716 82.537445 -19.617216
v 4.804305 89.171173 -14.353054
v -23.889854 67.722076 7.028679
v -17.016325 62.737965 -6.631052
v 10.397546 89.709541 3.888087
v 22.616880 96.787277 -2.458947
v 7.051953 92.852959 3.029980
v 19.874365 7.225319 37.050163
v 31.452627 15.389469 34.743919
v 17.847952 17.253424 29.947573
v 28.902403 94.550209 -20.602587
v 36.363209 93.380737 -19.849846
v 59.223038 63.991158 -11.886848
v 68.242119 51.547035 -9.494752
v 57.814293 53.833424 -13.204912
v 77.160118 40.035561 20.248390
v 64.277557 17.089655 29.077145
v 75.235497 30.358242 20.461643
v 38.195709 110.779343 -23.468212
v 35.363232 105.768845 -30.643520
v 55.152161 50.349213 35.401314
v 71.847755 51.512608 25.795000
v 62.428028 60.188969 28.382292
v 76.141289 55.115955 2.216267
v 77.443840 31.786386 9.292519
v -20.511681 46.441719 9.214548
v -15.619654 41.253635 19.234953
v -15.295059 55.172718 17.339926
v 48.751999 75.248901 10.750254
v 63.769543 69.472572 6.074312
v 50.795670 72.232697 -1.508498
v -16.081835 36.272312 -1.182789
v -7.135612 23.835348 15.087037
v -10.108046 31.131956 20.983580
v 13.184771 81.565674 -0.510763
v 16.881767 71.507210 3.674679
v -7.096308 82.828041 -11.379349
v 4.598203 84.128960 -36.358456
v -17.362780 54.555843 2.177474
v -5.462559 58.636871 -11.136494
v -8.192490 44.901501 -14.455393
v -2.564851 77.948547 -12.458483
v 1.880368 110.211441 -37.066368
v -2.582051 90.299576 -3.291964
v 9.679700 100.124702 -4.997551
v -4.205371 93.740364 8.040327
v 6.386195 90.643585 -8.425776
v -21.593699 86.379417 5.908784
v -14.117411 88.405998 16.906992
v -20.018257 77.262794 24.491413
v -19.341692 78.161926 1.290740
v 74.177460 41.442955 -6.971712
v 3.630415 88.538704 19.401827
v -6.772095 83.070396 27.367222
v -7.553542 24.984909 -1.506406
v 16.296309 28.901667 30.711380
v 8.905133 5.274907 -5.376803
v 54.831985 5.351871 -12.990793
v 54.923351 5.376235 0.264993
v 22.395800 5.311866 -18.550373
v 47.880558 72.037971 23.292019
v 42.551220 64.351578 31.091362
v -6.452787 5.375844 22.764629
v -4.462166 103.480209 -33.056183
v 32.650837 59.561928 -16.574064
v 6.239258 21.569592 -4.278805
v -4.711780 55.313019 24.598978
v -1.693329 44.653904 30.414913
v 74.377953 5.280865 16.983009
v 67.265984 5.335831 25.761890
v -5.434093 7.630634 -1.448322
v 67.756691 64.532501 19.785345
v 42.713348 30.459379 41.427631
v 62.885677 37.382732 34.117687
v 49.207832 41.972366 39.966232
v 27.724054 41.868996 39.776821
v 31.180925 27.114344 41.306591
v 39.498386 46.218288 40.304123
v 29.236950 68.702370 -1.372280
v -9.316551 87.904594 -8.589153
v 1.371671 8.035669 29.638382
v -4.245932 94.469864 -23.641005
v -14.483150 70.881027 32.904858
v 19.485271 93.621155 -38.630070
v 17.373781 62.434635 -15.595675
v 43.605114 63.727177 -11.608113
v 21.240665 104.226685 -36.328995
v 5.315333 80.260056 16.999882
v -5.818198 62.803837 33.934971
v 1.500826 65.004501 25.917610
v 70.471558 5.294834 5.591371
v 23.549337 47.895332 31.615866
v -1.425834 35.927811 28.697832
v 41.233246 32.638805 -26.831974
v 79.977448 21.758730 3.087993
v 30.041061 103.612564 -30.601151
v 46.470150 5.312054 32.180119
v 2.113453 32.444763 -16.716484
v 12.697721 5.310379 28.181570
v 6.419781 13.851887 6.827970
v 3.269821 94.082901 -34.315594
v 10.608130 101.516609 -28.953554
v -2.154797 100.336327 -20.623608
v 35.530037 95.245407 -14.819423
vn -0.2497 0.9085 -0.3351
vn 0.5866 -0.4395 0.6802
vn -0.5897 0.8073 -0.0224
vn -0.1197 0.6146 0.7797
vn 0.0098 -0.2961 -0.9551
vn 0.3422 -0.0637 -0.9375
vn -0.8861 -0.4541 0.0929
vn 0.7881 -0.4142 -0.4554
vn -0.1732 -0.0499 -0.9836
vn 0.2860 -0.3925 -0.8742
vn -0.9809 -0.1355 -0.1399
vn 0.1764 -0.2767 -0.9446
vn -0.1330 0.6106 0.7807
vn -0.2664 0.8215 -0.5041
vn 0.4556 0.3144 -0.8328
vn 0.9749 0.1623 0.1522
vn 0.1839 0.2814 -0.9418
vn 0.9804 -0.0721 -0.1835
vn -0.9026 -0.2000 -0.3812
vn 0.1952 0.4462 0.8734
vn -0.2147 0.5352 0.8170
vn -0.0262 -0.6540 -0.7561
vn 0.3485 0.0729 -0.9345
vn 0.7018 -0.1241 0.7015
vn 0.9511 -0.1557 -0.2668
vn 0.4311 0.8027 0.4121
vn 0.4685 0.2566 0.8454
vn 0.9986 0.0518 -0.0131
vn -0.8774 0.0848 0.4722
vn 0.3040 0.9356 -0.1795
vn -0.8774 -0.4620 0.1293
vn 0.7016 0.3944 -0.5934
vn 0.8688 0.1194 -0.4805
vn -0.8860 -0.1865 -0.4245
vn -0.4656 -0.6392 -0.6121
vn -0.4331 0.2921 -0.8527
vn 0.2302 -0.8943 -0.3837
vn -0.2776 0.7872 -0.5507
vn -0.5060 0.7152 0.4822
vn -0.0573 0.9530 -0.2976
vn -0.1516 0.9680 -0.2000
vn -0.3984 0.9114 0.1029
vn -0.9190 0.3940 -0.0115
vn 0.9797 -0.0061 -0.2004
vn -0.0760 0.8656 0.4949
vn 0.5877 -0.5931 -0.5503
vn -0.6130 -0.4444 -0.6533
vn -0.2573 0.4751 -0.8415
vn -0.6905 -0.1385 0.7099
vn -0.9403 0.1214 -0.3179
vn 0.0009 -1.0000 0.0018
vn -0.9167 0.0092 -0.3996
vn 0.3896 0.8487 -0.3576
vn -0.4226 0.6522 0.6294
vn -0.3581 0.9102 0.2081
vn 0.9675 -0.0925 -0.2353
vn 0.2310 0.6094 0.7584
vn 0.0008 -1.0000 0.0021
vn -0.6724 0.2109 -0.7095
vn 0.0826 0.1216 -0.9891
vn -0.4774 -0.1919 -0.8575
vn -0.6428 0.2186 0.7342
vn -0.4331 -0.2246 -0.8729
vn 0.7049 -0.4171 0.5737
vn 0.6535 0.6618 -0.3674
vn 0.3835 0.3928 -0.8358
vn -0.1872 -0.9775 -0.0971
vn -0.0411 0.1865 -0.9816
vn 0.9840 -0.1783 -0.0065
vn -0.3563 0.7757 0.5210
vn 0.7593 0.6506 0.0136
vn 0.3662 -0.0890 0.9263
vn -0.0760 0.0852 0.9935
vn -0.6227 0.4481 -0.6415
vn -0.8678 0.0304 -0.4961
vn -0.2410 -0.4920 -0.8366
vn -0.1576 0.9525 -0.2606
vn -0.8934 0.4370 0.1041
vn -0.7462 -0.4175 -0.5186
vn 0.4213 0.6571 -0.6251
vn -0.3791 -0.8389 -0.3905
vn -0.7625 0.1453 -0.6304
vn -0.5810 0.7179 0.3835
vn -0.9044 -0.1840 -0.3849
vn -0.9793 0.1956 -0.0521
vn -0.0325 0.6123 0.7899
vn -0.2334 0.7575 0.6097
vn -0.4071 0.5786 0.7067
vn 0.2902 0.6487 -0.7035
vn 0.2493 0.1895 -0.9497
vn -0.9368 0.0847 0.3394
vn 0.7861 -0.4818 0.3871
vn -0.2197 0.4705 -0.8546
vn -0.4549 0.8433 -0.2864
vn -0.1352 0.8032 -0.5802
vn 0.8492 -0.2423 0.4691
vn 0.6859 0.2317 0.6898
vn 0.8123 0.4520 0.3686
vn -0.7283 0.0568 -0.6829
vn 0.6959 0.4269 0.5774
vn 0.0893 -0.3417 0.9356
vn -0.8372 -0.3838 -0.3895
vn 0.7494 0.2918 -0.5944
vn -0.0006 -1.0000 0.0019
vn 0.2647 -0.5650 -0.7815
vn 0.6988 -0.0221 0.7150
vn -0.0755 0.4610 0.8842
vn 0.0832 0.1215 -0.9891
vn -0.4705 0.5649 0.6779
vn -0.3124 -0.5703 0.7597
vn -0.4428 -0.1834 -0.8777
vn -0.0321 0.0291 -0.9991
vn 0.2409 -0.7070 -0.6649
vn 0.8453 0.2441 -0.4752
vn -0.2528 0.9609 -0.1130
vn 0.3423 0.4501 -0.8248
vn -0.7595 0.4378 -0.4811
vn 0.1320 0.5091 0.8505
vn -0.7159 0.2423 0.6548
vn 0.3695 -0.2000 0.9074
vn 0.5190 0.3309 0.7881
vn 0.2076 0.4151 0.8858
vn -0.0476 -0.7374 -0.6738
vn -0.0826 0.8458 -0.5271
vn -0.4773 0.5724 0.6668
vn 0.1167 -0.9897 0.0830
vn -0.7406 0.2153 -0.6365
vn -0.5994 -0.1722 0.7817
vn 0.9569 0.2361 0.1692
vn 0.0073 0.9917 0.1283
vn 0.8683 0.0662 -0.4916
vn -0.7654 0.2643 0.5867
vn 0.2315 0.8558 -0.4626
vn -0.0003 -1.0000 -0.0048
vn 0.0313 -0.7473 -0.6638
vn -0.3111 0.0737 0.9475
vn -0.2692 -0.0334 -0.9625
vn -0.1167 0.2412 0.9634
vn -0.0114 -0.8607 -0.5090
vn -0.5242 0.8467 -0.0911
vn 0.1984 0.9776 0.0704
vn -0.2592 -0.0272 -0.9654
vn -0.4354 -0.3619 0.8243
vn -0.1824 0.4327 -0.8829
vn -0.5833 -0.0526 0.8106
vn 0.6628 0.2589 0.7026
vn -0.4590 0.4388 -0.7725
vn 0.9416 -0.1706 -0.2904
vn 0.1921 0.4540 0.8701
vn 0.0728 0.6924 -0.7178
vn 0.1815 0.0140 -0.9833
vn -0.4445 0.0595 0.8938
vn 0.8827 -0.3972 0.2512
vn -0.8145 -0.5056 0.2847
vn -0.3900 0.9107 0.1360
vn -0.0274 -0.9723 0.2321
vn -0.0027 -1.0000 -0.0074
vn -0.9690 -0.2443 -0.0377
vn -0.8008 0.3552 -0.4822
vn -0.5416 -0.3427 -0.7676
vn -0.3364 0.8866 -0.3174
vn -0.0656 0.5725 0.8172
vn 0.1878 0.2693 -0.9446
vn 0.0743 0.7192 0.6909
vn -0.0287 -0.2865 0.9577
vn -0.4203 0.6510 0.6322
vn -0.2468 0.9107 -0.3311
vn 0.6357 -0.0930 0.7663
vn 0.4268 -0.1570 -0.8906
vn 0.0720 0.0855 0.9937
vn -0.2123 0.4708 0.8563
vn -0.0199 0.1314 -0.9911
vn -0.6535 -0.4272 -0.6249
vn 0.1815 0.0203 0.9832
vn 0.9125 0.0687 0.4032
vn -0.7080 -0.5183 -0.4797
vn 0.0032 -1.0000 0.0005
vn 0.6150 0.4815 0.6245
vn -0.1868 -0.1952 0.9628
vn -0.8473 -0.4426 -0.2937
vn 0.2947 0.0357 0.9549
vn -0.4543 -0.0362 -0.8901
vn 0.1536 -0.5431 0.8255
vn 0.1178 0.9620 -0.2462
vn 0.3806 0.8892 0.2541
vn 0.2120 0.4058 0.8890
vn 0.5452 0.1651 -0.8219
vn -0.8748 -0.4421 0.1982
vn 0.5141 -0.4305 0.7419
vn 0.4059 0.8911 0.2030
vn 0.0726 -0.0789 -0.9942
vn 0.9677 -0.1888 0.1672
vn -0.5624 0.1244 0.8175
vn -0.3534 -0.1241 -0.9272
vn 0.9666 -0.1098 -0.2315
vn 0.1132 0.1478 0.9825
vn 0.7308 -0.3418 -0.5908
vn -0.7205 -0.5878 -0.3679
vn -0.7980 -0.6023 -0.0216
vn -0.8610 -0.4949 0.1173
vn 0.3407 0.6100 0.7154
vn 0.3146 0.9263 0.2071
vn 0.5893 -0.8073 -0.0321
vn 0.8330 -0.1330 -0.5370
vn -0.9241 0.0994 -0.3689
vn 0.8963 0.3840 0.2219
vn -0.5052 0.7727 -0.3843
vn 0.0471 -0.9019 -0.4294
vn 0.3740 0.7136 0.5924
vn 0.6986 -0.5154 0.4963
vn -0.7558 0.2918 -0.5861
vn -0.3036 -0.7649 -0.5681
vn 0.2474 -0.6251 -0.7403
vn 0.8040 -0.0023 0.5946
vn -0.9094 0.3935 -0.1347
vn 0.0201 -0.1616 -0.9867
vn -0.4049 -0.6688 0.6235
vn -0.7783 0.2505 0.5757
vn 0.6523 -0.0475 0.7565
vn 0.5537 -0.2411 0.7971
vn -0.9479 0.2189 0.2313
vn 0.4438 -0.8960 -0.0155
vn -0.0065 -1.0000 0.0010
vn -0.0294 0.0651 0.9974
vn -0.6611 -0.7406 0.1203
vn -0.1428 -0.8575 0.4943
vn -0.9266 0.0885 -0.3654
vn 0.5328 -0.8453 -0.0400
vn -0.1072 0.6818 0.7237
vn 0.4618 -0.7553 -0.4651
vn 0.7923 -0.5087 -0.3368
vn -0.2514 -0.9660 -0.0606
vn 0.7032 -0.1256 0.6998
vn -0.5704 0.7168 0.4010
vn 0.2960 0.9327 0.2062
vn -0.3504 -0.4636 0.8138
vn 0.0894 -0.2287 -0.9694
vn 0.2190 0.4539 -0.8637
vn -0.0244 0.7731 -0.6338
vn 0.5748 0.2775 -0.7698
vn -0.8293 -0.3638 -0.4242
vn -0.4291 0.9011 -0.0627
vn 0.4168 -0.7695 -0.4839
vn -0.5853 -0.1304 0.8003
vn -0.6993 0.6165 0.3618
vn -0.3386 -0.4122 0.8458
vn 0.1902 0.3623 0.9125
vn 0.5863 0.1454 -0.7970
vn -0.7668 -0.3669 -0.5266
vn 0.3967 -0.2132 0.8928
vn 0.6391 -0.3057 0.7058
vn 0.8194 0.2337 0.5234
vn -0.0224 0.9173 0.3976
vn 0.6835 0.2621 0.6813
vn 0.6623 -0.2357 -0.7112
vn -0.9492 -0.1351 0.2843
vn -0.2439 -0.9682 -0.0551
vn 0.9216 0.3217 0.2170
vn -0.5992 0.7427 0.2990
vn 0.3042 0.6644 0.6827
vn -0.1488 -0.9604 0.2355
vn 0.3026 -0.3842 -0.8722
vn -0.1018 -0.4877 0.8671
vn -0.0706 0.8876 0.4551
vn -0.3409 -0.5768 0.7423
vn 0.4781 0.2005 0.8551
vn -0.5328 -0.8456 -0.0328
vn 0.4356 0.1723 0.8835
vn 0.8003 -0.5327 -0.2751
vn -0.3737 -0.0345 -0.9269
vn 0.3702 0.0322 -0.9284
vn -0.0013 0.3162 -0.9487
vn 0.3672 0.5877 0.7210
vn -0.1267 -0.7810 0.6116
vn -0.9976 0.0477 0.0493
vn 0.0793 0.6725 -0.7358
vn 0.1689 -0.0165 -0.9855
vn 0.5187 0.0683 -0.8522
vn -0.8698 0.1153 -0.4797
vn 0.5568 -0.2678 0.7863
vn -0.5877 -0.1839 0.7879
vn 0.1789 0.3109 0.9335
vn 0.2428 0.8369 0.4906
vn 0.0025 -0.9998 -0.0211
vn 0.1119 0.4473 -0.8874
vn 0.3558 -0.2723 0.8940
vn 0.2819 0.7904 0.5439
vn -0.7213 0.3624 -0.5902
vn 0.0744 -0.2531 0.9646
vn 0.8855 0.2463 -0.3939
vn 0.6434 -0.6770 0.3575
vn 0.9804 -0.0645 0.1863
s off
f 9//7 10//7 11//7
f 12//8 13//8 14//8
f 15//9 16//9 17//9
f 18//10 19//10 20//10
f 9//11 21//11 22//11
f 23//12 24//12 11//12
f 25//13 26//13 27//13
f 28//14 29//14 30//14
f 31//15 32//15 33//15
f 34//16 35//16 28//16
f 36//17 37//17 38//17
f 35//18 39//18 40//18
f 41//19 42//19 37//19
f 43//20 44//20 45//20
f 46//21 47//21 48//21
f 49//22 50//22 51//22
f 52//23 32//23 31//23
f 46//24 53//24 54//24
f 55//25 56//25 27//25
f 57//26 58//26 59//26
f 60//27 61//27 62//27
f 63//28 64//28 47//28
f 65//29 66//29 67//29
f 68//30 69//30 70//30
f 71//31 64//31 72//31
f 70//32 50//32 49//32
f 73//33 74//33 75//33
f 76//34 68//34 77//34
f 78//35 79//35 80//35
f 81//36 82//36 83//36
f 84//37 85//37 86//37
f 65//38 76//38 66//38
f 87//39 88//39 47//39
f 89//40 33//40 90//40
f 91//41 56//41 92//41
f 22//42 93//42 92//42
f 53//43 46//43 94//43
f 95//44 52//44 31//44
f 96//45 59//45 97//45
f 98//46 59//46 96//46
f 54//47 96//47 99//47
f 100//48 101//48 98//48
f 55//49 102//49 103//49
f 76//50 77//50 104//50
f 105//51 101//51 106//51
f 28//52 30//52 34//52
f 84//53 93//53 107//53
f 48//54 22//54 92//54
f 108//55 36//55 62//55
f 109//56 43//56 45//56
f 110//57 111//57 112//57
f 91//58 84//58 78//58
f 83//59 82//59 65//59
f 106//60 101//60 102//60
f 113//61 81//61 20//61
f 99//62 46//62 54//62
f 114//63 75//63 113//63
f 112//64 111//64 115//64
f 31//65 116//65 95//65
f 117//66 10//66 9//66
f 21//67 44//67 118//67
f 119//68 79//68 120//68
f 99//69 63//69 47//69
f 121//70 50//70 122//70
f 76//71 65//71 82//71
f 67//72 66//72 23//72
f 123//73 109//73 42//73
f 112//74 45//74 44//74
f 110//75 34//75 111//75
f 114//76 113//76 20//76
f 76//77 82//77 124//77
f 125//78 126//78 127//78
f 128//79 129//79 130//79
f 11//80 40//80 9//80
f 91//81 93//81 84//81
f 44//82 40//82 39//82
f 131//83 81//83 83//83
f 78//84 80//84 91//84
f 40//85 44//85 21//85
f 15//86 71//86 72//86
f 45//87 112//87 109//87
f 132//88 103//88 100//88
f 133//89 38//89 115//89
f 134//90 89//90 132//90
f 26//91 102//91 27//91
f 119//92 19//92 18//92
f 59//93 17//93 97//93
f 102//94 135//94 106//94
f 23//95 11//95 10//95
f 94//96 46//96 48//96
f 42//97 41//97 123//97
f 54//98 53//98 136//98
f 48//99 137//99 22//99
f 115//100 37//100 42//100
f 138//101 131//101 83//101
f 136//102 139//102 54//102
f 140//103 141//103 142//103
f 87//104 18//104 88//104
f 132//105 89//105 103//105
f 140//106 18//106 57//106
f 129//107 12//107 125//107
f 56//108 91//108 27//108
f 76//109 104//109 66//109
f 122//110 115//110 143//110
f 111//111 30//111 143//111
f 74//112 126//112 68//112
f 19//113 119//113 120//113
f 22//114 117//114 9//114
f 20//115 144//115 114//115
f 145//116 36//116 108//116
f 16//117 63//117 99//117
f 146//118 40//118 11//118
f 32//119 90//119 33//119
f 52//120 139//120 32//120
f 132//121 100//121 96//121
f 49//122 147//122 29//122
f 97//123 16//123 99//123
f 73//124 75//124 130//124
f 102//125 26//125 135//125
f 14//126 69//126 126//126
f 140//127 142//127 18//127
f 75//128 114//128 130//128
f 64//129 63//129 148//129
f 117//130 131//130 138//130
f 114//131 144//131 128//131
f 42//132 112//132 115//132
f 89//133 56//133 103//133
f 145//134 120//134 86//134
f 57//135 18//135 87//135
f 70//136 49//136 77//136
f 49//137 51//137 147//137
f 144//138 108//138 128//138
f 131//139 117//139 48//139
f 149//140 115//140 122//140
f 150//141 21//141 118//141
f 108//142 144//142 19//142
f 109//143 123//143 43//143
f 122//144 50//144 70//144
f 146//145 35//145 40//145
f 16//146 97//146 17//146
f 71//147 15//147 17//147
f 94//148 92//148 89//148
f 25//149 141//149 135//149
f 15//150 72//150 148//150
f 129//151 128//151 108//151
f 140//152 106//152 141//152
f 97//153 99//153 96//153
f 104//154 77//154 29//154
f 58//155 17//155 59//155
f 29//156 77//156 49//156
f 34//157 110//157 44//157
f 151//158 62//158 38//158
f 50//159 121//159 51//159
f 36//160 152//160 37//160
f 81//161 131//161 20//161
f 60//162 151//162 149//162
f 111//163 143//163 115//163
f 100//164 103//164 102//164
f 9//165 40//165 21//165
f 116//166 31//166 153//166
f 100//167 98//167 96//167
f 19//168 144//168 20//168
f 117//169 67//169 10//169
f 154//170 52//170 95//170
f 149//171 12//171 61//171
f 62//172 36//172 38//172
f 123//173 41//173 152//173
f 106//174 140//174 105//174
f 24//175 28//175 35//175
f 130//176 125//176 127//176
f 114//177 128//177 130//177
f 65//178 67//178 138//178
f 150//179 107//179 93//179
f 60//180 149//180 61//180
f 140//181 57//181 105//181
f 116//182 153//182 134//182
f 109//183 112//183 42//183
f 124//184 75//184 74//184
f 145//185 108//185 120//185
f 118//186 43//186 152//186
f 13//187 149//187 122//187
f 43//188 118//188 44//188
f 14//189 13//189 69//189
f 48//190 88//190 131//190
f 124//191 81//191 113//191
f 38//192 133//192 151//192
f 24//193 23//193 66//193
f 78//194 86//194 79//194
f 119//195 18//195 142//195
f 81//196 124//196 82//196
f 94//197 48//197 92//197
f 68//198 70//198 77//198
f 80//199 79//199 119//199
f 22//200 150//200 93//200
f 139//201 136//201 32//201
f 108//202 19//202 120//202
f 29//203 24//203 104//203
f 90//204 94//204 89//204
f 84//205 107//205 85//205
f 78//206 84//206 86//206
f 154//207 139//207 52//207
f 57//208 98//208 105//208
f 53//209 94//209 90//209
f 29//210 28//210 24//210
f 153//211 33//211 89//211
f 124//212 74//212 76//212
f 37//213 115//213 38//213
f 39//214 34//214 44//214
f 75//215 124//215 113//215
f 119//216 142//216 141//216
f 92//217 93//217 91//217
f 107//218 150//218 118//218
f 148//219 72//219 64//219
f 58//220 71//220 17//220
f 155//221 134//221 132//221
f 147//222 143//222 29//222
f 86//223 85//223 36//223
f 62//224 151//224 60//224
f 122//225 70//225 69//225
f 57//226 87//226 58//226
f 116//227 134//227 155//227
f 64//228 87//228 47//228
f 121//229 122//229 143//229
f 130//230 129//230 125//230
f 80//231 27//231 91//231
f 133//232 115//232 151//232
f 31//233 33//233 153//233
f 90//234 136//234 53//234
f 37//235 152//235 41//235
f 34//236 30//236 111//236
f 147//237 51//237 143//237
f 107//238 118//238 85//238
f 68//239 126//239 69//239
f 155//240 132//240 96//240
f 131//241 88//241 20//241
f 62//242 61//242 129//242
f 150//243 22//243 21//243
f 138//244 67//244 117//244
f 83//245 65//245 138//245
f 11//246 35//246 146//246
f 63//247 16//247 148//247
f 123//248 152//248 43//248
f 136//249 90//249 32//249
f 129//250 108//250 62//250
f 100//251 102//251 101//251
f 26//252 25//252 135//252
f 73//253 130//253 127//253
f 24//254 66//254 104//254
f 153//255 89//255 134//255
f 126//256 125//256 14//256
f 58//257 87//257 156//257
f 96//258 54//258 154//258
f 88//259 18//259 20//259
f 156//260 71//260 58//260
f 29//261 143//261 30//261
f 102//262 55//262 27//262
f 118//263 36//263 85//263
f 74//264 68//264 76//264
f 155//265 95//265 116//265
f 54//266 139//266 154//266
f 119//267 25//267 80//267
f 35//268 34//268 39//268
f 129//269 61//269 12//269
f 98//270 101//270 105//270
f 86//271 36//271 145//271
f 73//272 126//272 74//272
f 25//273 27//273 80//273
f 73//274 127//274 126//274
f 51//275 121//275 143//275
f 89//276 92//276 56//276
f 24//277 35//277 11//277
f 117//278 22//278 137//278
f 59//279 98//279 57//279
f 119//280 141//280 25//280
f 152//281 36//281 118//281
f 137//282 48//282 117//282
f 44//283 110//283 112//283
f 99//284 47//284 46//284
f 103//285 56//285 55//285
f 12//286 149//286 13//286
f 79//287 86//287 120//287
f 141//288 106//288 135//288
f 155//289 96//289 154//289
f 151//290 115//290 149//290
f 67//291 23//291 10//291
f 12//292 14//292 125//292
f 155//293 154//293 95//293
f 148//294 16//294 15//294
f 13//295 122//295 69//295
f 47//296 88//296 48//296
f 156//297 87//297 64//297
f 71//298 156//298 64//298
