# Blender v2.80 (sub 75) OBJ File: ''
# www.blender.org
o Bunny-LowPoly
v 0.797479 1.215292 -0.510438
v 1.259508 1.363236 -0.453650
v 0.996445 1.192975 -0.719180
v 1.275632 0.281289 0.919073
v 1.507804 0.398508 0.794579
v 1.504418 0.592414 0.922775
v 0.849054 3.067847 -0.723056
v 0.637449 2.917900 -0.556530
v 0.806098 3.047625 -0.321036
v 0.381381 1.785410 0.478093
v 0.339991 1.427355 0.753942
v 0.741110 1.762379 0.551458
v 0.574388 0.859094 -0.402302
v 0.152578 1.325251 -0.551177
v 1.546461 1.166574 -0.516614
v 1.744537 0.946681 -0.429372
v -0.532399 1.570471 0.665716
v -0.619984 1.752325 0.719282
v -0.615484 1.640310 0.214572
v 1.721524 0.601459 -0.379552
v 2.021972 0.682860 0.066396
v 1.784286 0.354144 -0.045979
v 0.228665 2.937684 -1.200143
v 0.499584 2.649831 -1.233240
v 0.171247 2.475252 -1.166585
v 1.539989 0.387621 -0.342935
v 1.363208 0.801292 -0.586486
v 0.201181 0.542605 0.553166
v 0.274527 0.278789 0.294453
v 0.200218 0.420903 0.677847
v 1.047070 0.458100 -0.545010
v 0.779417 0.888621 -0.721087
v -0.049520 0.323593 0.204230
v -0.012466 0.143356 0.351489
v 0.283583 0.404986 -0.167119
v 0.869404 0.411367 -0.466350
v 0.367467 0.241707 -0.477570
v 0.131096 2.153689 -0.281797
v 0.263515 2.181106 -0.199009
v 0.308949 1.869345 -0.291831
v 2.264626 0.864552 0.266256
v 2.237751 0.701218 0.612533
v 2.298356 0.635053 0.294936
v 0.442568 3.070015 -1.118828
v 0.090881 2.252093 -0.535269
v 0.131089 2.433099 -0.391633
v -0.651852 1.847845 0.191783
v -0.464303 1.711850 -0.180933
v 0.283704 2.447788 0.106090
v 0.617118 2.640910 -0.067094
v 0.192418 2.533559 0.082676
v 0.542286 0.197148 1.010940
v 0.858207 0.419912 0.948013
v 0.486994 0.470772 0.817141
v 0.788623 2.579870 -0.562156
v 0.992196 2.547960 -0.541617
v 1.615943 1.746044 -0.324341
v 1.862035 1.406497 -0.259071
v 1.577504 1.468883 -0.360305
v 2.105369 1.092399 0.552492
v 1.753859 0.466303 0.793391
v 2.052854 0.828346 0.558311
v 1.042197 3.022693 -0.640346
v 0.964911 2.885978 -0.836130
v 1.504866 1.373814 0.965950
v 1.960417 1.405558 0.703835
v 1.703393 1.642299 0.774431
v 2.077569 1.503878 0.060473
v 2.113110 0.867314 0.253553
v -0.559676 1.267195 0.251426
v -0.426193 1.125635 0.524840
v -0.417337 1.505427 0.473132
v 1.330233 2.053220 0.293329
v 1.739997 1.895608 0.165742
v 1.385996 1.970920 -0.041160
v -0.438804 0.989716 -0.032273
v -0.194700 0.650364 0.411661
v -0.275805 0.849457 0.572552
v 0.359756 2.225577 -0.013936
v 0.460631 1.951125 0.100267
v -0.193628 2.260022 -0.310493
v 0.125465 2.295519 -0.992066
v -0.473756 1.488595 0.059414
v -0.149050 1.599949 -0.303867
v -0.223538 1.225169 -0.394425
v -0.069984 2.126881 -0.339938
v 0.051307 3.007198 -1.011382
v -0.070453 2.463888 -0.089823
v 0.264117 2.731974 -0.136361
v -0.114747 2.557772 0.219386
v 0.174252 2.473274 -0.229903
v -0.589199 2.356924 0.161226
v -0.385204 2.412220 0.461320
v -0.546212 2.108170 0.668266
v -0.527752 2.132704 0.035219
v 2.023985 1.130800 -0.190228
v 0.099058 2.415841 0.529393
v -0.184781 2.266634 0.746734
v -0.206104 0.681731 -0.041103
v 0.444656 0.788602 0.837982
v 0.242983 0.143930 -0.146710
v 1.496130 0.146030 -0.354463
v 1.498623 0.146694 0.007231
v 0.611085 0.144938 -0.506160
v 1.306455 1.965607 0.635540
v 1.161040 1.755878 0.848350
v -0.176069 0.146684 0.621149
v -0.121753 2.823531 -0.901961
v 0.890901 1.625190 -0.452235
v 0.170243 0.588542 -0.116750
v -0.128564 1.509255 0.671201
v -0.046204 1.218413 0.829893
v 2.029455 0.144092 0.463394
v 1.835400 0.145592 0.702931
v -0.148273 0.208207 -0.039518
v 1.848789 1.760815 0.539858
v 1.165464 0.831106 1.130382
v 1.715880 1.020014 0.930925
v 1.342671 1.145246 1.090507
v 0.756471 1.142425 1.085339
v 0.850794 0.739834 1.127080
v 1.077742 1.261099 1.099727
v 0.797751 1.874593 -0.037443
v -0.254209 2.398539 -0.234361
v 0.037427 0.219259 0.808704
v -0.115853 2.577677 -0.645061
v -0.395183 1.934039 0.897833
v 0.531669 2.554520 -1.054049
v 0.474056 1.703573 -0.425539
v 1.189796 1.738841 -0.316735
v 0.579567 2.843899 -0.991262
v 0.145033 2.189953 0.463854
v -0.158754 1.713647 0.925940
v 0.040951 1.773694 0.707181
v 1.922866 0.144473 0.152565
v 0.642560 1.306858 0.862662
v -0.038905 0.980316 0.783041
v 1.125078 0.890573 -0.732129
v 2.182241 0.593702 0.084258
v 0.819692 2.827143 -0.834974
v 1.267971 0.144943 0.878057
v 0.057667 0.885278 -0.456121
v 0.346466 0.144897 0.768954
v 0.175168 0.377959 0.186306
v 0.089219 2.567119 -0.936325
v 0.289450 2.769953 -0.790018
v -0.058795 2.737748 -0.562729
v 0.969462 2.598839 -0.404358
vn -0.2573 0.2973 -0.9194
vn 0.1550 0.4679 -0.8701
vn -0.1024 0.5453 -0.8319
vn 0.2780 -0.3319 0.9014
vn 0.3435 -0.3046 0.8884
vn 0.3753 -0.3088 0.8739
vn -0.2027 0.8519 -0.4828
vn -0.7685 0.4360 -0.4683
vn 0.2480 0.8048 0.5391
vn 0.2853 0.6127 0.7370
vn -0.0731 0.4281 0.9008
vn -0.2354 0.8167 0.5269
vn -0.4079 -0.2890 -0.8661
vn -0.1736 0.1086 -0.9788
vn 0.3624 0.2196 -0.9058
vn 0.5938 -0.0635 -0.8021
vn -0.5457 -0.7255 0.4192
vn -0.8562 -0.1606 0.4911
vn -0.9046 -0.4192 -0.0772
vn 0.6095 -0.3436 -0.7144
vn 0.6502 -0.0767 -0.7559
vn 0.5807 -0.5089 -0.6354
vn -0.3360 0.3378 -0.8792
vn 0.5376 -0.2153 -0.8152
vn -0.4582 -0.3718 -0.8073
vn 0.5105 -0.4387 -0.7395
vn 0.3385 -0.1929 -0.9210
vn -0.7795 -0.4221 0.4628
vn -0.8516 0.4145 0.3209
vn -0.6219 0.5883 0.5167
vn 0.0549 -0.6301 -0.7746
vn -0.5085 -0.0809 -0.8572
vn -0.6011 0.7371 0.3089
vn -0.7435 -0.5701 0.3495
vn -0.6920 0.1930 -0.6956
vn -0.1829 -0.1967 -0.9632
vn -0.6015 -0.0077 -0.7988
vn 0.5761 -0.0585 -0.8153
vn 0.5803 -0.1413 -0.8020
vn 0.2300 0.5152 -0.8256
vn 0.6390 0.7287 -0.2462
vn 0.6459 0.2071 0.7348
vn 0.9755 -0.1816 -0.1243
vn 0.4167 0.8848 -0.2086
vn 0.7357 -0.6772 -0.0035
vn 0.9650 0.1130 0.2365
vn -0.9936 0.0411 -0.1051
vn -0.6836 -0.2193 -0.6962
vn 0.6062 0.3710 0.7034
vn 0.5065 0.1072 0.8555
vn 0.0298 0.7696 0.6378
vn -0.3438 -0.3445 0.8736
vn -0.0996 -0.2047 0.9737
vn -0.5596 0.0829 0.8246
vn -0.2851 -0.5536 -0.7824
vn 0.7008 -0.6598 -0.2711
vn 0.3288 0.5334 -0.7793
vn 0.6130 0.2816 -0.7382
vn 0.2377 0.2777 -0.9308
vn 0.9248 0.0230 0.3798
vn 0.4332 -0.2095 0.8766
vn 0.6644 0.2109 0.7169
vn 0.8329 0.5527 -0.0285
vn 0.4989 0.0373 -0.8658
vn 0.3077 0.3498 0.8848
vn 0.7589 0.2733 0.5910
vn 0.4146 0.5028 0.7584
vn 0.8999 0.3833 -0.2078
vn 0.7911 0.5276 -0.3094
vn -0.9978 -0.0245 0.0610
vn -0.8166 -0.1659 0.5529
vn -0.7480 -0.5292 0.4005
vn 0.0227 0.9984 0.0513
vn 0.5493 0.8290 -0.1048
vn 0.0900 0.9122 -0.3996
vn -0.8709 -0.3620 -0.3322
vn -0.5735 -0.7872 0.2268
vn -0.6829 -0.4796 0.5510
vn 0.9730 -0.1691 0.1573
vn 0.6023 0.7944 0.0784
vn -0.7590 -0.1435 -0.6350
vn -0.2484 -0.8393 -0.4836
vn -0.9122 -0.1982 -0.3586
vn -0.4286 0.1243 -0.8949
vn -0.6472 -0.0246 -0.7619
vn -0.1831 -0.4229 -0.8875
vn -0.4762 0.8733 -0.1023
vn -0.2845 0.9584 -0.0222
vn -0.5986 0.7973 0.0775
vn -0.0928 0.9938 0.0603
vn -0.2384 0.4494 -0.8609
vn -0.8682 0.4727 -0.1505
vn -0.4099 0.8191 0.4012
vn -0.7884 0.4223 0.4473
vn -0.8906 0.1331 -0.4348
vn 0.8324 -0.0156 -0.5539
vn 0.5395 0.5617 0.6272
vn 0.1233 0.5814 0.8042
vn -0.5630 -0.7617 -0.3206
vn -0.4843 -0.1350 0.8644
vn -0.3819 -0.8107 -0.4436
vn 0.5640 -0.6245 -0.5402
vn 0.2146 -0.9588 -0.1861
vn -0.0576 -0.6379 -0.7680
vn 0.0243 0.8782 0.4776
vn -0.1174 0.6246 0.7721
vn -0.9660 -0.2528 0.0535
vn -0.9356 0.1991 -0.2914
vn 0.0934 0.5066 -0.8571
vn -0.5172 -0.6627 -0.5416
vn -0.1135 -0.2040 0.9724
vn -0.3123 0.1220 0.9421
vn 0.5829 -0.8006 0.1389
vn 0.3283 -0.7105 0.6224
vn -0.8874 -0.1233 -0.4441
vn 0.6558 0.6703 0.3471
vn 0.1678 -0.1310 0.9771
vn 0.5350 -0.0301 0.8443
vn 0.2659 0.1340 0.9546
vn -0.4510 0.2560 0.8550
vn -0.2499 -0.2013 0.9471
vn -0.0172 0.3123 0.9498
vn 0.0069 0.9731 -0.2303
vn -0.8160 0.4982 -0.2930
vn -0.3836 -0.0224 0.9232
vn -0.9498 -0.0866 -0.3005
vn -0.3359 0.1647 0.9274
vn 0.8348 -0.5463 -0.0678
vn -0.0327 0.5098 -0.8597
vn 0.0206 0.6606 -0.7504
vn 0.9096 0.3207 0.2641
vn 0.7261 0.2287 0.6483
vn 0.2626 -0.3028 0.9161
vn 0.6588 -0.0909 0.7468
vn 0.4236 -0.7931 -0.4375
vn -0.4365 0.4187 0.7963
vn -0.3890 -0.3329 0.8590
vn 0.2620 -0.3301 -0.9068
vn 0.5755 -0.1061 -0.8108
vn -0.3917 -0.2088 -0.8961
vn 0.1652 -0.7526 0.6373
vn -0.2556 -0.4860 -0.8357
vn -0.2524 -0.7661 0.5910
vn -0.8578 0.4441 0.2587
vn -0.8535 -0.1339 -0.5036
vn 0.2937 0.7052 0.6453
vn -0.4331 0.8031 0.4091
vn 0.8298 -0.2106 0.5168
s 1
f 1//1 2//2 3//3
f 4//4 5//5 6//6
f 7//7 8//8 9//9
f 10//10 11//11 12//12
f 1//1 13//13 14//14
f 15//15 16//16 3//3
f 17//17 18//18 19//19
f 20//20 21//21 22//22
f 23//23 24//24 25//25
f 26//26 27//27 20//20
f 28//28 29//29 30//30
f 27//27 31//31 32//32
f 33//33 34//34 29//29
f 35//35 36//36 37//37
f 38//38 39//39 40//40
f 41//41 42//42 43//43
f 44//44 24//24 23//23
f 38//38 45//45 46//46
f 47//47 48//48 19//19
f 49//49 50//50 51//51
f 52//52 53//53 54//54
f 55//55 56//56 39//39
f 57//57 58//58 59//59
f 60//60 61//61 62//62
f 63//63 56//56 64//64
f 62//62 42//42 41//41
f 65//65 66//66 67//67
f 68//68 60//60 69//69
f 70//70 71//71 72//72
f 73//73 74//74 75//75
f 76//76 77//77 78//78
f 57//57 68//68 58//58
f 79//79 80//80 39//39
f 81//81 25//25 82//82
f 83//83 48//48 84//84
f 14//14 85//85 84//84
f 45//45 38//38 86//86
f 87//87 44//44 23//23
f 88//88 51//51 89//89
f 90//90 51//51 88//88
f 46//46 88//88 91//91
f 92//92 93//93 90//90
f 47//47 94//94 95//95
f 68//68 69//69 96//96
f 97//97 93//93 98//98
f 20//20 22//22 26//26
f 76//76 85//85 99//99
f 40//40 14//14 84//84
f 100//100 28//28 54//54
f 101//101 35//35 37//37
f 102//102 103//103 104//104
f 83//83 76//76 70//70
f 75//75 74//74 57//57
f 98//98 93//93 94//94
f 105//105 73//73 12//12
f 91//91 38//38 46//46
f 106//106 67//67 105//105
f 104//104 103//103 107//107
f 23//23 108//108 87//87
f 109//109 2//2 1//1
f 13//13 36//36 110//110
f 111//111 71//71 112//112
f 91//91 55//55 39//39
f 113//113 42//42 114//114
f 68//68 57//57 74//74
f 59//59 58//58 15//15
f 115//115 101//101 34//34
f 104//104 37//37 36//36
f 102//102 26//26 103//103
f 106//106 105//105 12//12
f 68//68 74//74 116//116
f 117//117 118//118 119//119
f 120//120 121//121 122//122
f 3//3 32//32 1//1
f 83//83 85//85 76//76
f 36//36 32//32 31//31
f 123//123 73//73 75//75
f 70//70 72//72 83//83
f 32//32 36//36 13//13
f 7//7 63//63 64//64
f 37//37 104//104 101//101
f 124//124 95//95 92//92
f 125//125 30//30 107//107
f 126//126 81//81 124//124
f 18//18 94//94 19//19
f 111//111 11//11 10//10
f 51//51 9//9 89//89
f 94//94 127//127 98//98
f 15//15 3//3 2//2
f 86//86 38//38 40//40
f 34//34 33//33 115//115
f 46//46 45//45 128//128
f 40//40 129//129 14//14
f 107//107 29//29 34//34
f 130//130 123//123 75//75
f 128//128 131//131 46//46
f 132//132 133//133 134//134
f 79//79 10//10 80//80
f 124//124 81//81 95//95
f 132//132 10//10 49//49
f 121//121 4//4 117//117
f 48//48 83//83 19//19
f 68//68 96//96 58//58
f 114//114 107//107 135//135
f 103//103 22//22 135//135
f 66//66 118//118 60//60
f 11//11 111//111 112//112
f 14//14 109//109 1//1
f 12//12 136//136 106//106
f 137//137 28//28 100//100
f 8//8 55//55 91//91
f 138//138 32//32 3//3
f 24//24 82//82 25//25
f 44//44 131//131 24//24
f 124//124 92//92 88//88
f 41//41 139//139 21//21
f 89//89 8//8 91//91
f 65//65 67//67 122//122
f 94//94 18//18 127//127
f 6//6 61//61 118//118
f 132//132 134//134 10//10
f 67//67 106//106 122//122
f 56//56 55//55 140//140
f 109//109 123//123 130//130
f 106//106 136//136 120//120
f 34//34 104//104 107//107
f 81//81 48//48 95//95
f 137//137 112//112 78//78
f 49//49 10//10 79//79
f 62//62 41//41 69//69
f 41//41 43//43 139//139
f 136//136 100//100 120//120
f 123//123 109//109 40//40
f 141//141 107//107 114//114
f 142//142 13//13 110//110
f 100//100 136//136 11//11
f 101//101 115//115 35//35
f 114//114 42//42 62//62
f 138//138 27//27 32//32
f 8//8 89//89 9//9
f 63//63 7//7 9//9
f 86//86 84//84 81//81
f 17//17 133//133 127//127
f 7//7 64//64 140//140
f 121//121 120//120 100//100
f 132//132 98//98 133//133
f 89//89 91//91 88//88
f 96//96 69//69 21//21
f 50//50 9//9 51//51
f 21//21 69//69 41//41
f 26//26 102//102 36//36
f 143//143 54//54 30//30
f 42//42 113//113 43//43
f 28//28 144//144 29//29
f 73//73 123//123 12//12
f 52//52 143//143 141//141
f 103//103 135//135 107//107
f 92//92 95//95 94//94
f 1//1 32//32 13//13
f 108//108 23//23 145//145
f 92//92 90//90 88//88
f 11//11 136//136 12//12
f 109//109 59//59 2//2
f 146//146 44//44 87//87
f 141//141 4//4 53//53
f 54//54 28//28 30//30
f 115//115 33//33 144//144
f 98//98 132//132 97//97
f 16//16 20//20 27//27
f 122//122 117//117 119//119
f 106//106 120//120 122//122
f 57//57 59//59 130//130
f 142//142 99//99 85//85
f 52//52 141//141 53//53
f 132//132 49//49 97//97
f 108//108 145//145 126//126
f 101//101 104//104 34//34
f 116//116 67//67 66//66
f 137//137 100//100 112//112
f 110//110 35//35 144//144
f 5//5 141//141 114//114
f 35//35 110//110 36//36
f 6//6 5//5 61//61
f 40//40 80//80 123//123
f 116//116 73//73 105//105
f 30//30 125//125 143//143
f 16//16 15//15 58//58
f 70//70 78//78 71//71
f 111//111 10//10 134//134
f 73//73 116//116 74//74
f 86//86 40//40 84//84
f 60//60 62//62 69//69
f 72//72 71//71 111//111
f 14//14 142//142 85//85
f 131//131 128//128 24//24
f 100//100 11//11 112//112
f 21//21 16//16 96//96
f 82//82 86//86 81//81
f 76//76 99//99 77//77
f 70//70 76//76 78//78
f 146//146 131//131 44//44
f 49//49 90//90 97//97
f 45//45 86//86 82//82
f 21//21 20//20 16//16
f 145//145 25//25 81//81
f 116//116 66//66 68//68
f 29//29 107//107 30//30
f 31//31 26//26 36//36
f 67//67 116//116 105//105
f 111//111 134//134 133//133
f 84//84 85//85 83//83
f 99//99 142//142 110//110
f 140//140 64//64 56//56
f 50//50 63//63 9//9
f 147//147 126//126 124//124
f 139//139 135//135 21//21
f 78//78 77//77 28//28
f 54//54 143//143 52//52
f 114//114 62//62 61//61
f 49//49 79//79 50//50
f 108//108 126//126 147//147
f 56//56 79//79 39//39
f 113//113 114//114 135//135
f 122//122 121//121 117//117
f 72//72 19//19 83//83
f 125//125 107//107 143//143
f 23//23 25//25 145//145
f 82//82 128//128 45//45
f 29//29 144//144 33//33
f 26//26 22//22 103//103
f 139//139 43//43 135//135
f 99//99 110//110 77//77
f 60//60 118//118 61//61
f 147//147 124//124 88//88
f 123//123 80//80 12//12
f 54//54 53//53 121//121
f 142//142 14//14 13//13
f 130//130 59//59 109//109
f 75//75 57//57 130//130
f 3//3 27//27 138//138
f 55//55 8//8 140//140
f 115//115 144//144 35//35
f 128//128 82//82 24//24
f 121//121 100//100 54//54
f 92//92 94//94 93//93
f 18//18 17//17 127//127
f 65//65 122//122 119//119
f 16//16 58//58 96//96
f 145//145 81//81 126//126
f 118//118 117//117 6//6
f 50//50 79//79 148//148
f 88//88 46//46 146//146
f 80//80 10//10 12//12
f 148//148 63//63 50//50
f 21//21 135//135 22//22
f 94//94 47//47 19//19
f 110//110 28//28 77//77
f 66//66 60//60 68//68
f 147//147 87//87 108//108
f 46//46 131//131 146//146
f 111//111 17//17 72//72
f 27//27 26//26 31//31
f 121//121 53//53 4//4
f 90//90 93//93 97//97
f 78//78 28//28 137//137
f 65//65 118//118 66//66
f 17//17 19//19 72//72
f 65//65 119//119 118//118
f 43//43 113//113 135//135
f 81//81 84//84 48//48
f 16//16 27//27 3//3
f 109//109 14//14 129//129
f 51//51 90//90 49//49
f 111//111 133//133 17//17
f 144//144 28//28 110//110
f 129//129 40//40 109//109
f 36//36 102//102 104//104
f 91//91 39//39 38//38
f 95//95 48//48 47//47
f 4//4 141//141 5//5
f 71//71 78//78 112//112
f 133//133 98//98 127//127
f 147//147 88//88 146//146
f 143//143 107//107 141//141
f 59//59 15//15 2//2
f 4//4 6//6 117//117
f 147//147 146//146 87//87
f 140//140 8//8 7//7
f 5//5 114//114 61//61
f 39//39 80//80 40//40
f 148//148 79//79 56//56
f 63//63 148//148 56//56
